<mxfile host="app.diagrams.net" modified="2020-08-08T19:40:55.764Z" agent="5.0 (X11; Linux x86_64) AppleWebKit/537.36 (KHTML, like Gecko) Chrome/84.0.4147.105 Safari/537.36" etag="_8Jbmxmsh31tycIw-LJs" version="13.6.2" type="github">
  <diagram id="C5RBs43oDa-KdzZeNtuy" name="Page-1">
    <mxGraphModel dx="1866" dy="1028" grid="1" gridSize="10" guides="1" tooltips="1" connect="1" arrows="1" fold="1" page="1" pageScale="1" pageWidth="1169" pageHeight="827" math="0" shadow="0">
      <root>
        <mxCell id="WIyWlLk6GJQsqaUBKTNV-0" />
        <mxCell id="WIyWlLk6GJQsqaUBKTNV-1" parent="WIyWlLk6GJQsqaUBKTNV-0" />
        <mxCell id="aEL2OQ_pSQIl5Rr7KURG-4" value="Press &amp;lt;start&amp;gt; to initialize game" style="rounded=0;whiteSpace=wrap;html=1;" vertex="1" parent="WIyWlLk6GJQsqaUBKTNV-1">
          <mxGeometry x="525" y="100" width="120" height="60" as="geometry" />
        </mxCell>
        <mxCell id="aEL2OQ_pSQIl5Rr7KURG-6" value="" style="endArrow=classic;html=1;exitX=0.5;exitY=1;exitDx=0;exitDy=0;" edge="1" parent="WIyWlLk6GJQsqaUBKTNV-1" source="aEL2OQ_pSQIl5Rr7KURG-4">
          <mxGeometry width="50" height="50" relative="1" as="geometry">
            <mxPoint x="390" y="540" as="sourcePoint" />
            <mxPoint x="585" y="260" as="targetPoint" />
            <Array as="points" />
          </mxGeometry>
        </mxCell>
        <mxCell id="aEL2OQ_pSQIl5Rr7KURG-9" value="" style="edgeStyle=orthogonalEdgeStyle;rounded=0;orthogonalLoop=1;jettySize=auto;html=1;" edge="1" parent="WIyWlLk6GJQsqaUBKTNV-1" source="aEL2OQ_pSQIl5Rr7KURG-7" target="aEL2OQ_pSQIl5Rr7KURG-8">
          <mxGeometry relative="1" as="geometry" />
        </mxCell>
        <mxCell id="aEL2OQ_pSQIl5Rr7KURG-7" value="Show random sequence" style="shape=parallelogram;perimeter=parallelogramPerimeter;whiteSpace=wrap;html=1;fixedSize=1;" vertex="1" parent="WIyWlLk6GJQsqaUBKTNV-1">
          <mxGeometry x="525" y="260" width="120" height="60" as="geometry" />
        </mxCell>
        <mxCell id="aEL2OQ_pSQIl5Rr7KURG-11" value="" style="edgeStyle=orthogonalEdgeStyle;rounded=0;orthogonalLoop=1;jettySize=auto;html=1;" edge="1" parent="WIyWlLk6GJQsqaUBKTNV-1" source="aEL2OQ_pSQIl5Rr7KURG-8" target="aEL2OQ_pSQIl5Rr7KURG-10">
          <mxGeometry relative="1" as="geometry" />
        </mxCell>
        <mxCell id="aEL2OQ_pSQIl5Rr7KURG-8" value="player chooses pad" style="rhombus;whiteSpace=wrap;html=1;" vertex="1" parent="WIyWlLk6GJQsqaUBKTNV-1">
          <mxGeometry x="500" y="390" width="170" height="80" as="geometry" />
        </mxCell>
        <mxCell id="aEL2OQ_pSQIl5Rr7KURG-13" value="" style="edgeStyle=orthogonalEdgeStyle;rounded=0;orthogonalLoop=1;jettySize=auto;html=1;" edge="1" parent="WIyWlLk6GJQsqaUBKTNV-1" source="aEL2OQ_pSQIl5Rr7KURG-10" target="aEL2OQ_pSQIl5Rr7KURG-12">
          <mxGeometry relative="1" as="geometry" />
        </mxCell>
        <mxCell id="aEL2OQ_pSQIl5Rr7KURG-17" style="edgeStyle=orthogonalEdgeStyle;rounded=0;orthogonalLoop=1;jettySize=auto;html=1;" edge="1" parent="WIyWlLk6GJQsqaUBKTNV-1" source="aEL2OQ_pSQIl5Rr7KURG-10" target="aEL2OQ_pSQIl5Rr7KURG-18">
          <mxGeometry relative="1" as="geometry">
            <mxPoint x="880" y="290" as="targetPoint" />
          </mxGeometry>
        </mxCell>
        <mxCell id="aEL2OQ_pSQIl5Rr7KURG-10" value="correct?" style="rhombus;whiteSpace=wrap;html=1;" vertex="1" parent="WIyWlLk6GJQsqaUBKTNV-1">
          <mxGeometry x="545" y="550" width="80" height="80" as="geometry" />
        </mxCell>
        <mxCell id="aEL2OQ_pSQIl5Rr7KURG-14" style="edgeStyle=orthogonalEdgeStyle;rounded=0;orthogonalLoop=1;jettySize=auto;html=1;entryX=0;entryY=0.5;entryDx=0;entryDy=0;" edge="1" parent="WIyWlLk6GJQsqaUBKTNV-1" source="aEL2OQ_pSQIl5Rr7KURG-12" target="aEL2OQ_pSQIl5Rr7KURG-8">
          <mxGeometry relative="1" as="geometry">
            <mxPoint x="408" y="430" as="targetPoint" />
            <Array as="points">
              <mxPoint x="408" y="430" />
            </Array>
          </mxGeometry>
        </mxCell>
        <mxCell id="aEL2OQ_pSQIl5Rr7KURG-16" style="edgeStyle=orthogonalEdgeStyle;rounded=0;orthogonalLoop=1;jettySize=auto;html=1;exitX=0;exitY=0.5;exitDx=0;exitDy=0;entryX=0;entryY=0.25;entryDx=0;entryDy=0;" edge="1" parent="WIyWlLk6GJQsqaUBKTNV-1" source="aEL2OQ_pSQIl5Rr7KURG-12" target="aEL2OQ_pSQIl5Rr7KURG-7">
          <mxGeometry relative="1" as="geometry">
            <mxPoint x="520" y="280" as="targetPoint" />
            <Array as="points">
              <mxPoint x="250" y="585" />
              <mxPoint x="250" y="279" />
            </Array>
          </mxGeometry>
        </mxCell>
        <mxCell id="aEL2OQ_pSQIl5Rr7KURG-12" value="End of sequence" style="rhombus;whiteSpace=wrap;html=1;" vertex="1" parent="WIyWlLk6GJQsqaUBKTNV-1">
          <mxGeometry x="350" y="540" width="115" height="90" as="geometry" />
        </mxCell>
        <mxCell id="aEL2OQ_pSQIl5Rr7KURG-15" value="No" style="text;html=1;align=center;verticalAlign=middle;resizable=0;points=[];autosize=1;" vertex="1" parent="WIyWlLk6GJQsqaUBKTNV-1">
          <mxGeometry x="395" y="400" width="30" height="20" as="geometry" />
        </mxCell>
        <mxCell id="aEL2OQ_pSQIl5Rr7KURG-19" style="edgeStyle=orthogonalEdgeStyle;rounded=0;orthogonalLoop=1;jettySize=auto;html=1;entryX=1;entryY=0.5;entryDx=0;entryDy=0;" edge="1" parent="WIyWlLk6GJQsqaUBKTNV-1" source="aEL2OQ_pSQIl5Rr7KURG-18" target="aEL2OQ_pSQIl5Rr7KURG-4">
          <mxGeometry relative="1" as="geometry">
            <Array as="points">
              <mxPoint x="910" y="130" />
            </Array>
          </mxGeometry>
        </mxCell>
        <mxCell id="aEL2OQ_pSQIl5Rr7KURG-18" value="Game Over; &lt;br&gt;press &amp;lt;reset&amp;gt; and &amp;lt;start&amp;gt;" style="shape=parallelogram;perimeter=parallelogramPerimeter;whiteSpace=wrap;html=1;fixedSize=1;" vertex="1" parent="WIyWlLk6GJQsqaUBKTNV-1">
          <mxGeometry x="830" y="230" width="160" height="90" as="geometry" />
        </mxCell>
        <mxCell id="aEL2OQ_pSQIl5Rr7KURG-20" value="yes" style="text;html=1;align=center;verticalAlign=middle;resizable=0;points=[];autosize=1;" vertex="1" parent="WIyWlLk6GJQsqaUBKTNV-1">
          <mxGeometry x="495" y="560" width="30" height="20" as="geometry" />
        </mxCell>
        <mxCell id="aEL2OQ_pSQIl5Rr7KURG-21" value="no" style="text;html=1;align=center;verticalAlign=middle;resizable=0;points=[];autosize=1;" vertex="1" parent="WIyWlLk6GJQsqaUBKTNV-1">
          <mxGeometry x="915" y="580" width="30" height="20" as="geometry" />
        </mxCell>
        <mxCell id="aEL2OQ_pSQIl5Rr7KURG-22" value="yes&lt;br&gt;" style="text;html=1;align=center;verticalAlign=middle;resizable=0;points=[];autosize=1;" vertex="1" parent="WIyWlLk6GJQsqaUBKTNV-1">
          <mxGeometry x="215" y="590" width="30" height="20" as="geometry" />
        </mxCell>
      </root>
    </mxGraphModel>
  </diagram>
</mxfile>
